<svg width="18" height="18" viewBox="0 0 18 18" fill="none" xmlns="http://www.w3.org/2000/svg">
<path d="M14.4225 11.4449L12.5175 11.2274C12.2935 11.2011 12.0665 11.2259 11.8534 11.3C11.6404 11.374 11.4469 11.4954 11.2875 11.6549L9.90753 13.0349C7.77842 11.9521 6.04787 10.2216 4.96503 8.09245L6.35253 6.70495C6.67503 6.38245 6.83253 5.93245 6.78003 5.47495L6.56253 3.58495C6.52001 3.21908 6.34443 2.88162 6.06921 2.63683C5.79399 2.39204 5.43836 2.25701 5.07003 2.25745H3.77253C2.92503 2.25745 2.22003 2.96245 2.27253 3.80995C2.67003 10.2149 7.79253 15.3299 14.19 15.7274C15.0375 15.7799 15.7425 15.0749 15.7425 14.2274V12.9299C15.75 12.1724 15.18 11.5349 14.4225 11.4449Z" fill="white"/>
</svg>
