<svg width="20" height="20" viewBox="0 0 20 20" fill="none" xmlns="http://www.w3.org/2000/svg">
<path d="M9.99995 12.1L2.64995 19.4499C2.37495 19.7249 2.02495 19.8625 1.59995 19.8625C1.17495 19.8625 0.824951 19.7249 0.549951 19.4499C0.274951 19.1749 0.137451 18.825 0.137451 18.4C0.137451 17.975 0.274951 17.625 0.549951 17.35L7.89995 9.99995L0.549951 2.64995C0.274951 2.37495 0.137451 2.02495 0.137451 1.59995C0.137451 1.17495 0.274951 0.824951 0.549951 0.549951C0.824951 0.274951 1.17495 0.137451 1.59995 0.137451C2.02495 0.137451 2.37495 0.274951 2.64995 0.549951L9.99995 7.89995L17.35 0.549951C17.625 0.274951 17.975 0.137451 18.4 0.137451C18.825 0.137451 19.1749 0.274951 19.4499 0.549951C19.7249 0.824951 19.8625 1.17495 19.8625 1.59995C19.8625 2.02495 19.7249 2.37495 19.4499 2.64995L12.1 9.99995L19.4499 17.35C19.7249 17.625 19.8625 17.975 19.8625 18.4C19.8625 18.825 19.7249 19.1749 19.4499 19.4499C19.1749 19.7249 18.825 19.8625 18.4 19.8625C17.975 19.8625 17.625 19.7249 17.35 19.4499L9.99995 12.1Z" fill="#375A64"/>
</svg>
