<svg width="21" height="21" viewBox="0 0 21 21" fill="none" xmlns="http://www.w3.org/2000/svg">
<path d="M19.71 10.29L10.71 1.29C10.6175 1.1973 10.5076 1.12375 10.3866 1.07357C10.2657 1.02339 10.136 0.997559 10.005 0.997559C9.87404 0.997559 9.74436 1.02339 9.62339 1.07357C9.50241 1.12375 9.39253 1.1973 9.30001 1.29L0.300012 10.29C0.207309 10.3825 0.133761 10.4924 0.0835798 10.6134C0.0333983 10.7344 0.00756836 10.864 0.00756836 10.995C0.00756836 11.126 0.0333983 11.2557 0.0835798 11.3766C0.133761 11.4976 0.207309 11.6075 0.300012 11.7L9.30001 20.7C9.69001 21.09 10.32 21.09 10.71 20.7L19.71 11.7C19.8027 11.6075 19.8763 11.4976 19.9264 11.3766C19.9766 11.2557 20.0025 11.126 20.0025 10.995C20.0025 10.864 19.9766 10.7344 19.9264 10.6134C19.8763 10.4924 19.8027 10.3825 19.71 10.29ZM12 13.5V11H8.00001V13C8.00001 13.55 7.55001 14 7.00001 14C6.45001 14 6.00001 13.55 6.00001 13V10C6.00001 9.45 6.45001 9 7.00001 9H12V6.5L15.15 9.65C15.35 9.85 15.35 10.16 15.15 10.36L12 13.5Z" fill="#375A64"/>
</svg>
